<svg width="120" height="120" viewBox="0 0 120 120" fill="none" xmlns="http://www.w3.org/2000/svg">
<path fill-rule="evenodd" clip-rule="evenodd" d="M82.0861 106.003C103.543 97.5585 120 79.269 120 59.3801C120 32.1082 76.6519 10 49.3801 10C22.1082 10 0 32.1082 0 59.3801C0 80.2986 8.50013 99.4478 31.5337 107.235C35.7864 98.8452 44.2201 93.2345 57.1429 93.2345C69.4226 93.2345 77.649 98.3008 82.0861 106.003Z" fill="#02684A"/>
<path d="M82.0861 106.003C77.649 98.3008 69.4226 93.2345 57.1429 93.2345C44.2201 93.2345 35.7864 98.8452 31.5337 107.235C38.5294 109.6 46.8657 110.916 56.7116 110.916C65.4679 110.916 74.1214 109.138 82.0861 106.003Z" fill="#C2EA00"/>
<path d="M56.2168 53.8803C56.2522 52.8585 57.0908 52.0485 58.1131 52.0485V52.0485C59.1355 52.0485 59.9741 52.8585 60.0095 53.8803L61.5479 98.304C61.6152 100.248 60.0579 101.86 58.1131 101.86V101.86C56.1684 101.86 54.611 100.248 54.6783 98.304L56.2168 53.8803Z" fill="#C2EA00"/>
<path d="M78.7062 39.6496C82.5341 44.3539 78.5961 53.0145 73.4232 57.2237C68.2502 61.433 60.1032 59.6694 58.1132 57.2237C56.1231 54.7781 56.7138 47.0934 61.8868 42.8841C67.0597 38.6749 75.9865 36.3073 78.7062 39.6496Z" fill="#C2EA00"/>
<path d="M58.9606 53.7301C58.6995 50.9437 52.7913 44.9984 49.3528 45.3206C45.9142 45.6428 43.3383 48.1628 43.5994 50.9492C43.8605 53.7357 46.8597 55.7333 50.2982 55.4111C53.7368 55.089 59.2217 56.5166 58.9606 53.7301Z" fill="#C2EA00"/>
</svg>
