<svg width="2395" height="724" viewBox="0 0 2395 724" fill="none" xmlns="http://www.w3.org/2000/svg">
<path d="M2242.11 596.266L2219.23 635.796C2218.22 637.589 2217.21 639.329 2216.2 641.011C2215.31 642.691 2214.24 644.15 2213.01 645.384C2211.89 646.617 2210.54 647.627 2208.97 648.412C2207.51 649.197 2205.66 649.589 2203.42 649.589H2184.08C2182.39 649.589 2180.99 649.197 2179.87 648.412C2178.86 647.514 2178.36 646.224 2178.36 644.542C2178.36 643.533 2178.53 642.412 2178.86 641.178C2179.31 639.832 2180.04 638.376 2181.05 636.804L2224.45 565.818L2181.38 491.133C2180.04 489.002 2179.37 486.983 2179.37 485.077C2179.37 479.919 2182.73 477.339 2189.46 477.339H2286.52C2292.12 477.339 2295.99 477.955 2298.12 479.19C2300.37 480.422 2302.1 482.105 2303.34 484.237L2325.04 521.242L2342.53 491.133C2343.54 489.339 2344.49 487.599 2345.39 485.917C2346.4 484.237 2347.47 482.778 2348.59 481.544C2349.82 480.311 2351.22 479.301 2352.79 478.516C2354.36 477.731 2356.27 477.339 2358.51 477.339H2377.69C2379.48 477.339 2380.88 477.787 2381.89 478.685C2383.01 479.469 2383.58 480.704 2383.58 482.386C2383.58 484.629 2382.68 487.207 2380.88 490.124L2343.04 551.858L2390.81 633.608C2391.71 635.066 2392.43 636.525 2393 637.983C2393.67 639.329 2394 640.617 2394 641.851C2394 643.757 2393.67 645.271 2393 646.393C2392.32 647.401 2391.43 648.188 2390.3 648.749C2389.18 649.197 2387.95 649.476 2386.6 649.589H2382.73H2283.99C2281.19 649.589 2278.78 649.252 2276.76 648.58C2274.85 647.794 2273.23 646.898 2271.88 645.888C2270.65 644.879 2269.64 643.813 2268.85 642.691C2268.18 641.572 2267.62 640.561 2267.17 639.664L2242.11 596.266Z" fill="#02684A"/>
<path d="M2036.38 500.721C2036.38 496.909 2036.72 493.544 2037.39 490.627C2038.07 487.599 2039.36 485.132 2041.26 483.226C2043.17 481.32 2045.8 479.862 2049.17 478.853C2052.53 477.844 2056.91 477.339 2062.29 477.339H2135.97C2141.13 477.339 2145.28 477.844 2148.41 478.853C2151.67 479.751 2154.19 481.152 2155.98 483.058C2157.78 484.964 2158.96 487.376 2159.52 490.292C2160.08 493.207 2160.36 496.683 2160.36 500.721V626.544C2160.36 630.356 2160.08 633.721 2159.52 636.636C2158.96 639.44 2157.78 641.851 2155.98 643.87C2154.19 645.777 2151.67 647.235 2148.41 648.244C2145.28 649.141 2141.13 649.589 2135.97 649.589H2062.29C2056.91 649.589 2052.53 649.084 2049.17 648.075C2045.8 647.067 2043.17 645.608 2041.26 643.702C2039.36 641.796 2038.07 639.384 2037.39 636.469C2036.72 633.553 2036.38 630.132 2036.38 626.207V500.721Z" fill="#02684A"/>
<path d="M1826.79 500.721C1826.79 496.909 1827.13 493.544 1827.8 490.627C1828.47 487.599 1829.76 485.132 1831.67 483.226C1833.58 481.32 1836.21 479.862 1839.58 478.853C1842.94 477.844 1847.31 477.339 1852.7 477.339H1921.5C1926.54 477.339 1930.86 477.844 1934.45 478.853C1938.15 479.862 1940.78 481.601 1942.35 484.068C1943.81 483.058 1945.55 481.994 1947.57 480.872C1949.7 479.638 1952 478.516 1954.46 477.508C1956.93 476.499 1959.57 475.657 1962.37 474.985C1965.17 474.311 1968.09 473.975 1971.12 473.975C1981.88 473.975 1990.24 477.676 1996.18 485.077C2002.24 492.478 2005.26 503.357 2005.26 517.711V641.683C2005.26 643.589 2004.99 645.103 2004.42 646.224C2003.97 647.235 2003.36 648.02 2002.57 648.58C2001.9 649.028 2001.06 649.31 2000.05 649.421C1999.04 649.534 1998.03 649.589 1997.02 649.589H1986.26C1983.34 649.589 1981.43 648.749 1980.54 647.067C1979.75 645.384 1979.36 643.589 1979.36 641.683V516.028C1979.36 509.636 1978.18 504.757 1975.83 501.393C1973.58 498.03 1969.94 496.348 1964.89 496.348C1962.32 496.348 1959.68 497.075 1956.99 498.534C1954.41 499.879 1952.33 501.337 1950.76 502.907V626.039C1950.76 629.964 1950.43 633.384 1949.75 636.301C1949.08 639.216 1947.79 641.683 1945.89 643.702C1943.98 645.608 1941.34 647.067 1937.98 648.075C1934.62 649.084 1930.24 649.589 1924.86 649.589H1852.7C1847.31 649.589 1842.94 649.084 1839.58 648.075C1836.21 647.067 1833.58 645.608 1831.67 643.702C1829.76 641.796 1828.47 639.384 1827.8 636.469C1827.13 633.553 1826.79 630.132 1826.79 626.207V500.721Z" fill="#02684A"/>
<path fill-rule="evenodd" clip-rule="evenodd" d="M1758.5 621.665C1761.53 621.665 1764.27 621.273 1766.74 620.488C1769.21 619.591 1771.39 618.638 1773.3 617.629C1775.32 616.618 1776.94 615.723 1778.18 614.938C1779.52 614.04 1780.53 613.591 1781.21 613.591C1782.21 613.591 1782.89 613.759 1783.22 614.096C1783.67 614.433 1784.18 615.049 1784.74 615.947L1790.63 625.03C1791.19 625.928 1791.47 626.712 1791.47 627.384C1791.47 628.171 1791.24 628.787 1790.79 629.235C1790.34 629.685 1789.9 630.077 1789.45 630.412C1785.75 632.992 1781.21 635.796 1775.82 638.823C1770.44 641.738 1764.16 644.431 1756.98 646.898C1749.92 649.365 1741.9 651.384 1732.93 652.954C1723.96 654.636 1714.09 655.476 1703.32 655.476C1694.91 655.476 1686.5 654.804 1678.09 653.457C1669.68 652.112 1661.61 649.981 1653.87 647.067C1646.24 644.15 1639.12 640.337 1632.51 635.627C1625.89 630.917 1620.11 625.143 1615.18 618.301C1610.36 611.461 1606.54 603.554 1603.74 594.584C1600.94 585.501 1599.54 575.127 1599.54 563.464C1599.54 552.025 1600.94 541.82 1603.74 532.85C1606.54 523.766 1610.36 515.804 1615.18 508.962C1620.11 502.122 1625.89 496.348 1632.51 491.638C1639.12 486.815 1646.24 482.947 1653.87 480.03C1661.61 477.002 1669.68 474.817 1678.09 473.471C1686.5 472.124 1694.91 471.452 1703.32 471.452C1717.34 471.452 1730.35 473.021 1742.35 476.162C1754.46 479.301 1764.95 484.461 1773.8 491.638C1782.66 498.815 1789.62 508.235 1794.66 519.896C1799.71 531.56 1802.23 545.858 1802.23 562.79V572.211C1802.23 574.23 1801.73 575.799 1800.72 576.921C1799.71 578.042 1798.03 578.603 1795.67 578.603H1726.03C1726.93 586.902 1728.5 593.855 1730.74 599.462C1733.1 604.957 1735.73 609.386 1738.65 612.751C1741.68 616.002 1744.93 618.301 1748.4 619.646C1751.88 620.994 1755.24 621.665 1758.5 621.665ZM1776.16 535.709C1777.62 541.54 1778.35 548.941 1778.35 557.914H1725.36C1725.7 547.82 1726.76 539.745 1728.55 533.69C1730.46 527.634 1732.7 522.982 1735.28 519.728C1737.97 516.476 1740.83 514.346 1743.86 513.337C1746.89 512.327 1749.69 511.824 1752.27 511.824C1755.75 511.824 1759.06 512.551 1762.2 514.009C1765.45 515.468 1768.25 517.99 1770.61 521.579C1772.96 525.056 1774.81 529.766 1776.16 535.709Z" fill="#02684A"/>
<path fill-rule="evenodd" clip-rule="evenodd" d="M1537.8 621.665C1540.83 621.665 1543.58 621.273 1546.04 620.488C1548.51 619.591 1550.7 618.638 1552.61 617.629C1554.62 616.618 1556.25 615.723 1557.48 614.938C1558.83 614.04 1559.84 613.591 1560.51 613.591C1561.52 613.591 1562.19 613.759 1562.53 614.096C1562.98 614.433 1563.48 615.049 1564.04 615.947L1569.93 625.03C1570.49 625.928 1570.77 626.712 1570.77 627.384C1570.77 628.171 1570.55 628.787 1570.1 629.235C1569.65 629.685 1569.2 630.077 1568.75 630.412C1565.05 632.992 1560.51 635.796 1555.13 638.823C1549.74 641.738 1543.46 644.431 1536.29 646.898C1529.22 649.365 1521.2 651.384 1512.23 652.954C1503.26 654.636 1493.39 655.476 1482.63 655.476C1474.22 655.476 1465.81 654.804 1457.4 653.457C1448.99 652.112 1440.91 649.981 1433.17 647.067C1425.55 644.15 1418.43 640.337 1411.81 635.627C1405.19 630.917 1399.42 625.143 1394.48 618.301C1389.66 611.461 1385.85 603.554 1383.05 594.584C1380.24 585.501 1378.84 575.127 1378.84 563.464C1378.84 552.025 1380.24 541.82 1383.05 532.85C1385.85 523.766 1389.66 515.804 1394.48 508.962C1399.42 502.122 1405.19 496.348 1411.81 491.638C1418.43 486.815 1425.55 482.947 1433.17 480.03C1440.91 477.002 1448.99 474.817 1457.4 473.471C1465.81 472.124 1474.22 471.452 1482.63 471.452C1496.65 471.452 1509.65 473.021 1521.65 476.162C1533.76 479.301 1544.25 484.461 1553.11 491.638C1561.97 498.815 1568.92 508.235 1573.97 519.896C1579.01 531.56 1581.54 545.858 1581.54 562.79V572.211C1581.54 574.23 1581.03 575.799 1580.02 576.921C1579.01 578.042 1577.33 578.603 1574.98 578.603H1505.34C1506.23 586.902 1507.8 593.855 1510.05 599.462C1512.4 604.957 1515.04 609.386 1517.95 612.751C1520.98 616.002 1524.23 618.301 1527.71 619.646C1531.18 620.994 1534.55 621.665 1537.8 621.665ZM1555.46 535.709C1556.92 541.54 1557.65 548.941 1557.65 557.914H1504.66C1505 547.82 1506.07 539.745 1507.86 533.69C1509.77 527.634 1512.01 522.982 1514.59 519.728C1517.28 516.476 1520.14 514.346 1523.17 513.337C1526.2 512.327 1529 511.824 1531.58 511.824C1535.05 511.824 1538.36 512.551 1541.5 514.009C1544.75 515.468 1547.56 517.99 1549.91 521.579C1552.27 525.056 1554.12 529.766 1555.46 535.709Z" fill="#02684A"/>
<path d="M1198.35 500.721C1198.35 496.909 1198.69 493.544 1199.36 490.627C1200.03 487.599 1201.32 485.132 1203.23 483.226C1205.13 481.32 1207.77 479.862 1211.13 478.853C1214.5 477.844 1218.87 477.339 1224.25 477.339H1297.93C1303.09 477.339 1307.24 477.844 1310.38 478.853C1313.52 479.862 1315.99 481.376 1317.78 483.395C1319.57 485.414 1320.75 487.936 1321.31 490.964C1321.98 493.992 1322.32 497.525 1322.32 501.561V514.009L1359.66 477.676C1362.13 475.32 1364.43 474.143 1366.56 474.143C1367.79 474.143 1368.86 474.424 1369.76 474.985C1370.77 475.433 1371.61 475.994 1372.28 476.665L1379.85 484.572C1381.53 486.254 1382.37 488.105 1382.37 490.124C1382.37 491.356 1381.98 492.646 1381.2 493.992C1380.52 495.226 1379.4 496.459 1377.83 497.693L1322.32 540.756V625.87C1322.32 629.796 1322.04 633.273 1321.48 636.301C1320.92 639.216 1319.69 641.683 1317.78 643.702C1315.87 645.608 1313.13 647.067 1309.54 648.075C1305.95 649.084 1301.07 649.589 1294.9 649.589H1224.25C1218.87 649.589 1214.5 649.084 1211.13 648.075C1207.77 647.067 1205.13 645.608 1203.23 643.702C1201.32 641.796 1200.03 639.384 1199.36 636.469C1198.69 633.553 1198.35 630.132 1198.35 626.207V500.721Z" fill="#02684A"/>
<path fill-rule="evenodd" clip-rule="evenodd" d="M1064.79 632.768C1056.26 632.768 1047.8 632.207 1039.39 631.086C1030.98 629.853 1022.9 627.945 1015.16 625.367C1015.05 625.928 1015 626.488 1015 627.049V628.563C1015 631.926 1015.56 635.066 1016.68 637.983C1017.8 640.785 1019.54 643.252 1021.89 645.384C1024.36 647.514 1027.56 649.197 1031.48 650.429C1035.41 651.664 1040.17 652.28 1045.78 652.28C1051.95 652.28 1057.67 651.888 1062.94 651.103C1068.21 650.429 1073.37 649.702 1078.41 648.915C1083.46 648.02 1088.51 647.235 1093.55 646.561C1098.71 645.777 1104.15 645.384 1109.87 645.384C1115.36 645.384 1120.75 646.393 1126.02 648.412C1131.29 650.318 1135.94 653.122 1139.98 656.822C1144.13 660.634 1147.44 665.289 1149.9 670.783C1152.37 676.278 1153.6 682.56 1153.6 689.624C1153.6 695.903 1152.99 701.398 1151.75 706.108C1150.63 710.818 1149.45 715.304 1148.22 719.565C1148 720.125 1147.55 720.799 1146.87 721.584C1146.31 722.368 1145.19 722.761 1143.51 722.761H1131.06C1129.49 722.761 1128.48 722.368 1128.04 721.584C1127.59 720.912 1127.25 720.351 1127.03 719.902C1124.9 714.631 1116.65 711.995 1102.3 711.995C1096.13 711.995 1090.02 712.332 1083.96 713.006C1077.91 713.79 1071.74 714.575 1065.46 715.36C1059.18 716.257 1052.62 717.042 1045.78 717.716C1039.05 718.501 1031.93 718.893 1024.42 718.893C1013.99 718.893 1005.13 717.155 997.838 713.677C990.661 710.202 984.83 705.771 980.344 700.389C975.859 695.119 972.607 689.287 970.588 682.895C968.569 676.502 967.56 670.447 967.56 664.728C967.56 658.561 968.233 652.954 969.579 647.907C971.037 642.749 972.887 638.094 975.13 633.945C977.373 629.796 979.952 626.096 982.868 622.842C985.783 619.48 988.699 616.452 991.615 613.759C982.419 607.48 975.018 599.294 969.411 589.2C963.803 579.108 961 566.716 961 552.025C961 542.046 962.402 533.129 965.205 525.28C968.009 517.318 971.822 510.365 976.644 504.421C981.578 498.365 987.353 493.263 993.97 489.113C1000.59 484.964 1007.71 481.601 1015.33 479.021C1023.07 476.331 1031.14 474.424 1039.56 473.303C1047.97 472.068 1056.38 471.452 1064.79 471.452C1072.3 471.452 1079.98 471.844 1087.83 472.629C1095.68 473.414 1103.31 474.872 1110.71 477.002C1118.22 479.021 1125.29 481.768 1131.9 485.245C1138.63 488.721 1144.58 493.152 1149.73 498.534C1155.28 504.321 1159.55 511.824 1161.51 516.028C1163.75 520.849 1165.44 526.12 1166.56 531.841C1167.79 537.56 1168.41 543.839 1168.41 550.679C1168.41 562.119 1166.95 572.1 1164.03 580.622C1161.12 589.145 1157.08 596.435 1151.92 602.49C1146.87 608.546 1140.99 613.535 1134.26 617.461C1127.53 621.386 1120.3 624.469 1112.56 626.712C1104.93 628.955 1097.03 630.525 1088.84 631.422C1080.66 632.32 1072.64 632.768 1064.79 632.768ZM1125.01 512.832C1127.7 513.504 1130.17 514.683 1132.41 516.365C1136.87 519.715 1140.47 526.241 1141.83 530.159C1143.74 535.653 1144.69 542.607 1144.69 551.016C1144.69 559.428 1143.9 566.323 1142.33 571.707C1140.76 576.978 1138.69 581.183 1136.11 584.322C1133.64 587.349 1130.73 589.482 1127.36 590.714C1124 591.836 1120.58 592.396 1117.1 592.396C1113.4 592.396 1109.81 591.948 1106.34 591.051C1102.86 590.153 1099.78 588.304 1097.08 585.501C1094.39 582.697 1092.21 578.658 1090.52 573.39C1088.95 568.006 1088.17 560.884 1088.17 552.025C1088.17 543.167 1089.18 536.101 1091.2 530.83C1093.22 525.449 1095.68 521.355 1098.6 518.551C1101.63 515.747 1104.77 513.954 1108.02 513.169C1111.38 512.271 1114.41 511.824 1117.1 511.824C1119.79 511.824 1122.43 512.159 1125.01 512.832Z" fill="#02684A"/>
<path fill-rule="evenodd" clip-rule="evenodd" d="M969.67 189.065C968.72 193.18 968.245 197.928 968.245 203.309V380.416C968.245 385.956 968.72 390.783 969.67 394.899C970.62 399.013 972.44 402.417 975.13 405.107C977.821 407.798 981.54 409.856 986.288 411.279C991.037 412.703 997.209 413.416 1004.81 413.416H1106.65C1114.25 413.416 1120.42 412.703 1125.17 411.279C1129.92 409.856 1133.64 407.798 1136.33 405.107C1139.02 402.257 1140.84 398.776 1141.79 394.662C1142.74 390.545 1143.22 385.718 1143.22 380.178V206.396C1145.43 204.18 1148.36 202.122 1152 200.223C1155.8 198.165 1159.52 197.137 1163.16 197.137C1170.28 197.137 1175.42 199.511 1178.59 204.259C1181.91 209.007 1183.58 215.892 1183.58 224.913V402.257C1183.58 404.948 1184.13 407.481 1185.24 409.856C1186.5 412.23 1189.19 413.416 1193.31 413.416H1208.5C1209.93 413.416 1211.35 413.338 1212.78 413.178C1214.2 413.022 1215.39 412.625 1216.34 411.992C1217.45 411.201 1218.32 410.094 1218.95 408.667C1219.74 407.084 1220.14 404.948 1220.14 402.257V227.288C1220.14 220.165 1219.58 213.597 1218.47 207.583C1219.58 206.633 1220.85 205.604 1222.27 204.496C1224.01 203.23 1225.91 202.043 1227.97 200.935C1230.03 199.827 1232.09 198.957 1234.14 198.324C1236.2 197.532 1238.18 197.137 1240.08 197.137C1247.2 197.137 1252.35 199.511 1255.51 204.259C1258.83 209.007 1260.49 215.892 1260.49 224.913V402.257C1260.49 404.948 1261.05 407.481 1262.16 409.856C1263.42 412.23 1266.11 413.416 1270.23 413.416H1285.19C1286.61 413.416 1288.04 413.338 1289.46 413.178C1290.88 413.022 1292.15 412.625 1293.26 411.992C1294.36 411.201 1295.24 410.094 1295.87 408.667C1296.66 407.084 1297.06 404.948 1297.06 402.257V227.288C1297.06 207.029 1292.78 191.676 1284.24 181.23C1275.85 170.784 1264.06 165.561 1248.86 165.561C1244.59 165.561 1240.32 166.036 1236.04 166.986C1231.77 167.777 1227.73 168.885 1223.93 170.309C1220.14 171.734 1216.65 173.396 1213.49 175.295C1210.96 176.878 1208.58 178.461 1206.37 180.043C1197.98 170.389 1186.5 165.561 1171.94 165.561C1167.67 165.561 1163.47 166.036 1159.36 166.986C1155.4 167.777 1151.6 168.885 1147.96 170.309C1144.48 171.734 1141.24 173.317 1138.23 175.058C1135.22 176.64 1132.69 178.223 1130.63 179.806C1128.42 176.324 1124.86 173.871 1119.95 172.446C1115.04 171.022 1109.03 170.309 1101.91 170.309H1004.81C997.209 170.309 991.037 171.022 986.288 172.446C981.54 173.871 977.821 175.928 975.13 178.619C972.44 181.309 970.62 184.791 969.67 189.065ZM1342.4 189.065C1341.45 193.18 1340.98 197.928 1340.98 203.309V380.416C1340.98 385.956 1341.45 390.783 1342.4 394.899C1343.35 399.013 1345.17 402.417 1347.86 405.107C1350.55 407.798 1354.27 409.856 1359.02 411.279C1363.77 412.703 1369.94 413.416 1377.54 413.416H1481.52C1488.8 413.416 1494.66 412.784 1499.09 411.517C1503.68 410.094 1507.24 408.035 1509.77 405.345C1512.31 402.495 1513.97 399.092 1514.76 395.134C1515.55 391.02 1515.95 386.272 1515.95 380.891V203.309C1515.95 197.611 1515.55 192.705 1514.76 188.59C1513.97 184.475 1512.31 181.072 1509.77 178.381C1507.24 175.691 1503.68 173.712 1499.09 172.446C1494.66 171.022 1488.8 170.309 1481.52 170.309H1377.54C1369.94 170.309 1363.77 171.022 1359.02 172.446C1354.27 173.871 1350.55 175.928 1347.86 178.619C1345.17 181.309 1343.35 184.791 1342.4 189.065ZM1728.19 333.172C1724.87 322.567 1723.2 309.272 1723.2 293.286C1723.2 277.301 1724.87 264.008 1728.19 253.402C1731.67 242.798 1736.02 234.331 1741.25 228C1746.47 221.669 1752.09 217.237 1758.1 214.705C1764.12 212.014 1769.74 210.669 1774.96 210.669C1778.92 210.669 1782.48 211.223 1785.64 212.331C1788.81 213.28 1791.58 214.388 1793.95 215.654C1796.33 216.762 1798.31 217.791 1799.89 218.741C1801.47 219.69 1802.74 220.165 1803.69 220.165C1805.11 220.165 1806.06 219.928 1806.54 219.453C1807.17 218.978 1807.88 218.108 1808.67 216.842L1816.98 204.022C1817.77 202.914 1818.17 201.806 1818.17 200.698C1818.17 199.59 1817.85 198.719 1817.22 198.086C1816.58 197.453 1815.95 196.899 1815.32 196.424C1810.26 192.626 1803.61 188.827 1795.38 185.029C1787.31 181.072 1778.13 177.511 1767.84 174.345C1757.71 171.022 1746.63 168.41 1734.6 166.511C1722.57 164.453 1710.07 163.425 1697.09 163.425C1685.22 163.425 1673.35 164.374 1661.48 166.274C1649.61 168.173 1638.21 171.259 1627.29 175.532C1616.53 179.806 1606.48 185.345 1597.14 192.151C1587.8 198.799 1579.65 206.95 1572.69 216.604C1565.88 226.1 1560.5 237.259 1556.54 250.079C1552.59 262.741 1550.61 277.144 1550.61 293.286C1550.61 309.431 1552.59 323.912 1556.54 336.732C1560.5 349.395 1565.88 360.554 1572.69 370.208C1579.65 379.705 1587.8 387.855 1597.14 394.662C1606.48 401.309 1616.53 406.768 1627.29 411.042C1638.21 415.315 1649.61 418.402 1661.48 420.301C1673.35 422.2 1685.22 423.151 1697.09 423.151C1711.65 423.151 1725.1 422.041 1737.45 419.826C1749.8 417.611 1760.95 414.839 1770.92 411.517C1781.05 408.192 1789.92 404.553 1797.51 400.596C1805.11 396.48 1811.52 392.603 1816.74 388.962C1817.38 388.487 1818.01 387.933 1818.64 387.301C1819.28 386.669 1819.59 385.796 1819.59 384.689C1819.59 383.741 1819.2 382.633 1818.41 381.366L1810.1 368.547C1809.31 367.28 1808.59 366.41 1807.96 365.935C1807.48 365.459 1806.54 365.221 1805.11 365.221C1804.16 365.221 1802.82 365.775 1801.07 366.883C1799.34 367.833 1797.2 369.019 1794.66 370.446C1792.13 371.712 1789.21 372.898 1785.88 374.006C1782.56 374.957 1778.92 375.432 1774.96 375.432C1769.74 375.432 1764.12 374.165 1758.1 371.631C1752.09 369.1 1746.47 364.746 1741.25 358.574C1736.02 352.245 1731.67 343.777 1728.19 333.172ZM1847.61 189.065C1846.66 193.18 1846.18 197.928 1846.18 203.309V380.416C1846.18 385.956 1846.66 390.783 1847.61 394.899C1848.56 399.013 1850.38 402.417 1853.07 405.107C1855.76 407.798 1859.48 409.856 1864.23 411.279C1868.97 412.703 1875.15 413.416 1882.74 413.416H1982.46C1991.16 413.416 1998.04 412.703 2003.11 411.279C2008.17 409.856 2012.05 407.798 2014.74 405.107C2017.43 402.257 2019.17 398.776 2019.97 394.662C2020.76 390.388 2021.15 385.48 2021.15 379.94V259.813L2099.5 199.036C2101.71 197.295 2103.3 195.554 2104.25 193.813C2105.35 191.914 2105.91 190.093 2105.91 188.353C2105.91 185.504 2104.72 182.892 2102.35 180.518L2091.66 169.36C2090.71 168.41 2089.53 167.619 2088.1 166.986C2086.84 166.194 2085.33 165.799 2083.59 165.799C2080.59 165.799 2077.34 167.46 2073.86 170.784L2021.15 222.065V204.496C2021.15 198.799 2020.68 193.813 2019.73 189.539C2018.94 185.266 2017.27 181.705 2014.74 178.856C2012.21 176.007 2008.73 173.871 2004.3 172.446C1999.87 171.022 1994.01 170.309 1986.73 170.309H1882.74C1875.15 170.309 1868.97 171.022 1864.23 172.446C1859.48 173.871 1855.76 175.928 1853.07 178.619C1850.38 181.309 1848.56 184.791 1847.61 189.065ZM2211.79 418.875C2223.66 420.777 2235.53 421.725 2247.4 421.725C2258.48 421.725 2269.8 421.012 2281.35 419.588C2292.91 418.165 2304.06 415.712 2314.83 412.23C2325.75 408.589 2335.96 403.603 2345.45 397.271C2354.95 390.942 2363.26 382.949 2370.38 373.293C2377.66 363.482 2383.36 351.77 2387.47 338.158C2391.59 324.388 2393.65 308.324 2393.65 289.964C2393.65 272.079 2391.51 256.568 2387.24 243.431C2383.12 230.136 2377.42 218.741 2370.14 209.245C2363.02 199.748 2354.63 191.993 2344.98 185.978C2335.48 179.806 2325.27 174.978 2314.35 171.497C2303.59 167.856 2292.43 165.403 2280.88 164.137C2269.48 162.712 2258.33 162 2247.4 162C2235.53 162 2223.66 162.95 2211.79 164.849C2199.92 166.748 2188.53 169.835 2177.61 174.108C2166.84 178.223 2156.79 183.684 2147.46 190.489C2138.12 197.137 2129.97 205.288 2123 214.942C2116.19 224.597 2110.81 235.834 2106.86 248.654C2102.9 261.315 2100.92 275.718 2100.92 291.863C2100.92 308.324 2102.9 322.964 2106.86 335.784C2110.81 348.444 2116.19 359.603 2123 369.257C2129.97 378.914 2138.12 387.063 2147.46 393.711C2156.79 400.358 2166.84 405.739 2177.61 409.856C2188.53 413.97 2199.92 416.976 2211.79 418.875ZM2334.77 361.661C2330.02 363.72 2325.19 364.746 2320.29 364.746C2315.06 364.746 2310 363.955 2305.09 362.374C2300.35 360.792 2296.15 357.466 2292.51 352.402C2288.87 347.337 2285.94 339.976 2283.73 330.322C2281.51 320.668 2280.4 307.848 2280.4 291.863C2280.4 275.877 2281.75 263.136 2284.44 253.64C2287.13 243.985 2290.45 236.626 2294.41 231.561C2298.52 226.338 2302.88 222.935 2307.47 221.352C2312.22 219.769 2316.49 218.978 2320.29 218.978C2325.19 218.978 2330.02 220.007 2334.77 222.065C2339.52 224.122 2343.79 227.841 2347.59 233.223C2351.39 238.446 2354.4 245.647 2356.61 254.827C2358.99 264.008 2360.17 275.718 2360.17 289.964C2360.17 304.999 2358.99 317.424 2356.61 327.237C2354.4 336.891 2351.39 344.487 2347.59 350.027C2343.95 355.567 2339.68 359.446 2334.77 361.661Z" fill="#02684A"/>
<path fill-rule="evenodd" clip-rule="evenodd" d="M588.284 688.024C742.055 627.503 860 496.428 860 353.89C860 158.442 549.339 0 353.89 0C158.442 0 0 158.442 0 353.89C0 503.807 60.9176 641.043 225.992 696.848C256.469 636.724 316.911 596.514 409.524 596.514C497.529 596.514 556.484 632.822 588.284 688.024Z" fill="#02684A"/>
<path d="M588.284 688.024C556.484 632.822 497.529 596.514 409.524 596.514C316.911 596.514 256.469 636.724 225.992 696.848C276.127 713.797 335.871 723.234 406.433 723.234C469.186 723.234 531.203 710.49 588.284 688.024Z" fill="#C2EA00"/>
<path d="M402.888 314.475C403.141 307.153 409.151 301.348 416.478 301.348C423.805 301.348 429.815 307.153 430.068 314.475L441.094 632.845C441.576 646.774 430.415 658.329 416.478 658.329C402.54 658.329 391.379 646.774 391.862 632.845L402.888 314.475Z" fill="#C2EA00"/>
<path d="M564.061 212.489C591.495 246.203 563.272 308.271 526.199 338.437C489.127 368.603 430.74 355.964 416.478 338.437C402.216 320.91 406.449 265.836 443.522 235.669C480.595 205.503 544.57 188.536 564.061 212.489Z" fill="#C2EA00"/>
<path d="M422.551 313.399C420.68 293.43 378.338 250.822 353.695 253.131C329.052 255.44 310.591 273.5 312.463 293.469C314.334 313.439 335.828 327.755 360.471 325.446C385.114 323.137 424.422 333.369 422.551 313.399Z" fill="#C2EA00"/>
</svg>
